<svg xmlns="http://www.w3.org/2000/svg" viewBox="0 0 24 24" width="24" height="24">
  <path fill-rule="evenodd" d="M12,3C6.5,3,2,7.5,2,13c0,2.2,0.7,4.2,1.9,5.9c0.2,0.3,0.5,0.5,0.9,0.5h14.4
    c0.4,0,0.7-0.2,0.9-0.5C21.3,17.2,22,15.2,22,13C22,7.5,17.5,3,12,3z M12,5c3.9,0,7,3.1,7,7c0,0.8-0.1,1.5-0.4,2.2
    l-1.9-0.7c0.2-0.5,0.3-1,0.3-1.5c0-2.8-2.2-5-5-5s-5,2.2-5,5c0,0.5,0.1,1,0.3,1.5l-1.9,0.7C5.1,13.5,5,12.8,5,12
    C5,8.1,8.1,5,12,5z"/>
  <path d="M12.7,7.3l1.8,4.9c0.3,0.1,0.5,0.3,0.7,0.5c0.6,0.6,0.6,1.5,0,2.1c-0.6,0.6-1.5,0.6-2.1,0
    c-0.2-0.2-0.4-0.5-0.5-0.7l-4.9-1.8L12.7,7.3z"/>
</svg>
